<?xml version="1.0" encoding="UTF-8" standalone="no"?>
<!DOCTYPE svg PUBLIC "-//W3C//DTD SVG 1.1//EN"
 "http://www.w3.org/Graphics/SVG/1.1/DTD/svg11.dtd">
<!-- Generated by graphviz version 2.40.1 (20161225.0304)
 -->
<!-- Title: %3 Pages: 1 -->
<svg width="1000pt" height="712pt"
 viewBox="0.00 0.00 1000.00 711.60" xmlns="http://www.w3.org/2000/svg" xmlns:xlink="http://www.w3.org/1999/xlink">
<g id="graph0" class="graph" transform="scale(1 1) rotate(0) translate(4 707.5968)">
<title>%3</title>
<polygon fill="#ffffff" stroke="transparent" points="-4,4 -4,-707.5968 995.996,-707.5968 995.996,4 -4,4"/>
<!-- example.com/hello -->
<g id="node1" class="node">
<title>example.com/hello</title>
<polygon fill="#e94762" stroke="transparent" points="496.7984,-369.7984 365.7984,-369.7984 365.7984,-333.7984 496.7984,-333.7984 496.7984,-369.7984"/>
<text text-anchor="middle" x="431.2984" y="-348.0984" font-family="Helvetica,sans-Serif" font-size="14.00" fill="#000000">example.com/hello</text>
</g>
<!-- github.com/kr/pretty -->
<g id="node2" class="node">
<title>github.com/kr/pretty</title>
<text text-anchor="middle" x="598.1976" y="-417.2303" font-family="Helvetica,sans-Serif" font-size="14.00" fill="#000000">github.com/kr/pretty</text>
</g>
<!-- example.com/hello&#45;&gt;github.com/kr/pretty -->
<g id="edge1" class="edge">
<title>example.com/hello&#45;&gt;github.com/kr/pretty</title>
<path fill="none" stroke="#000000" d="M475.1492,-369.962C496.6143,-378.8531 522.6298,-389.6291 545.2007,-398.9783"/>
<polygon fill="#000000" stroke="#000000" points="544.0615,-402.2947 554.6397,-402.888 546.7403,-395.8276 544.0615,-402.2947"/>
</g>
<!-- github.com/sirupsen/logrus -->
<g id="node3" class="node">
<title>github.com/sirupsen/logrus</title>
<text text-anchor="middle" x="264.3992" y="-278.9665" font-family="Helvetica,sans-Serif" font-size="14.00" fill="#000000">github.com/sirupsen/logrus</text>
</g>
<!-- example.com/hello&#45;&gt;github.com/sirupsen/logrus -->
<g id="edge2" class="edge">
<title>example.com/hello&#45;&gt;github.com/sirupsen/logrus</title>
<path fill="none" stroke="#000000" d="M387.4476,-333.6348C365.9825,-324.7437 339.967,-313.9677 317.3961,-304.6185"/>
<polygon fill="#000000" stroke="#000000" points="318.5353,-301.3021 307.9571,-300.7088 315.8565,-307.7693 318.5353,-301.3021"/>
</g>
<!-- github.com/kr/text -->
<g id="node4" class="node">
<title>github.com/kr/text</title>
<text text-anchor="middle" x="765.0968" y="-486.3622" font-family="Helvetica,sans-Serif" font-size="14.00" fill="#000000">github.com/kr/text</text>
</g>
<!-- github.com/kr/pretty&#45;&gt;github.com/kr/text -->
<g id="edge3" class="edge">
<title>github.com/kr/pretty&#45;&gt;github.com/kr/text</title>
<path fill="none" stroke="#000000" d="M642.0484,-439.0939C663.5135,-447.985 689.529,-458.761 712.0999,-468.1102"/>
<polygon fill="#000000" stroke="#000000" points="710.9607,-471.4266 721.5389,-472.0199 713.6395,-464.9595 710.9607,-471.4266"/>
</g>
<!-- github.com/davecgh/go&#45;spew -->
<g id="node6" class="node">
<title>github.com/davecgh/go&#45;spew</title>
<text text-anchor="middle" x="569.5622" y="-681.8968" font-family="Helvetica,sans-Serif" font-size="14.00" fill="#000000">github.com/davecgh/go&#45;spew</text>
</g>
<!-- github.com/sirupsen/logrus&#45;&gt;github.com/davecgh/go&#45;spew -->
<g id="edge5" class="edge">
<title>github.com/sirupsen/logrus&#45;&gt;github.com/davecgh/go&#45;spew</title>
<path fill="none" stroke="#000000" d="M278.1043,-300.7623C326.9048,-365.1975 492.3505,-583.6482 549.7525,-659.4405"/>
<polygon fill="#000000" stroke="#000000" points="547.0673,-661.6922 555.8949,-667.5508 552.6475,-657.4659 547.0673,-661.6922"/>
</g>
<!-- github.com/konsorten/go&#45;windows&#45;terminal&#45;sequences -->
<g id="node7" class="node">
<title>github.com/konsorten/go&#45;windows&#45;terminal&#45;sequences</title>
<text text-anchor="middle" x="293.0346" y="-681.8968" font-family="Helvetica,sans-Serif" font-size="14.00" fill="#000000">github.com/konsorten/go&#45;windows&#45;terminal&#45;sequences</text>
</g>
<!-- github.com/sirupsen/logrus&#45;&gt;github.com/konsorten/go&#45;windows&#45;terminal&#45;sequences -->
<g id="edge6" class="edge">
<title>github.com/sirupsen/logrus&#45;&gt;github.com/konsorten/go&#45;windows&#45;terminal&#45;sequences</title>
<path fill="none" stroke="#000000" d="M265.6852,-300.7623C270.2273,-364.6747 285.5381,-580.1135 291.0426,-657.5676"/>
<polygon fill="#000000" stroke="#000000" points="287.5519,-657.8241 291.7521,-667.5508 294.5343,-657.3278 287.5519,-657.8241"/>
</g>
<!-- github.com/pmezard/go&#45;difflib -->
<g id="node8" class="node">
<title>github.com/pmezard/go&#45;difflib</title>
<text text-anchor="middle" x="97.5" y="-486.3622" font-family="Helvetica,sans-Serif" font-size="14.00" fill="#000000">github.com/pmezard/go&#45;difflib</text>
</g>
<!-- github.com/sirupsen/logrus&#45;&gt;github.com/pmezard/go&#45;difflib -->
<g id="edge7" class="edge">
<title>github.com/sirupsen/logrus&#45;&gt;github.com/pmezard/go&#45;difflib</title>
<path fill="none" stroke="#000000" d="M249.88,-300.7087C220.2883,-337.4805 152.8995,-421.2206 118.5194,-463.9426"/>
<polygon fill="#000000" stroke="#000000" points="115.6473,-461.9291 112.1045,-471.914 121.1007,-466.3177 115.6473,-461.9291"/>
</g>
<!-- github.com/stretchr/objx -->
<g id="node9" class="node">
<title>github.com/stretchr/objx</title>
<text text-anchor="middle" x="97.5" y="-209.8346" font-family="Helvetica,sans-Serif" font-size="14.00" fill="#000000">github.com/stretchr/objx</text>
</g>
<!-- github.com/sirupsen/logrus&#45;&gt;github.com/stretchr/objx -->
<g id="edge8" class="edge">
<title>github.com/sirupsen/logrus&#45;&gt;github.com/stretchr/objx</title>
<path fill="none" stroke="#000000" d="M220.5484,-264.5029C199.0833,-255.6118 173.0678,-244.8358 150.4969,-235.4866"/>
<polygon fill="#000000" stroke="#000000" points="151.6361,-232.1702 141.0579,-231.5769 148.9573,-238.6373 151.6361,-232.1702"/>
</g>
<!-- github.com/stretchr/testify -->
<g id="node10" class="node">
<title>github.com/stretchr/testify</title>
<text text-anchor="middle" x="293.0346" y="-14.3" font-family="Helvetica,sans-Serif" font-size="14.00" fill="#000000">github.com/stretchr/testify</text>
</g>
<!-- github.com/sirupsen/logrus&#45;&gt;github.com/stretchr/testify -->
<g id="edge9" class="edge">
<title>github.com/sirupsen/logrus&#45;&gt;github.com/stretchr/testify</title>
<path fill="none" stroke="#000000" d="M266.3674,-264.4749C271.2717,-219.1464 284.0648,-100.9043 289.9682,-46.3418"/>
<polygon fill="#000000" stroke="#000000" points="293.4565,-46.6374 291.0526,-36.3189 286.4971,-45.8844 293.4565,-46.6374"/>
</g>
<!-- golang.org/x/crypto -->
<g id="node11" class="node">
<title>golang.org/x/crypto</title>
<text text-anchor="middle" x="569.5622" y="-14.3" font-family="Helvetica,sans-Serif" font-size="14.00" fill="#000000">golang.org/x/crypto</text>
</g>
<!-- github.com/sirupsen/logrus&#45;&gt;golang.org/x/crypto -->
<g id="edge10" class="edge">
<title>github.com/sirupsen/logrus&#45;&gt;golang.org/x/crypto</title>
<path fill="none" stroke="#000000" d="M285.3743,-264.4749C338.7273,-218.202 479.6899,-95.9459 540.7187,-43.0158"/>
<polygon fill="#000000" stroke="#000000" points="543.179,-45.515 548.4404,-36.3189 538.5926,-40.2269 543.179,-45.515"/>
</g>
<!-- golang.org/x/sys -->
<g id="node12" class="node">
<title>golang.org/x/sys</title>
<text text-anchor="middle" x="765.0968" y="-209.8346" font-family="Helvetica,sans-Serif" font-size="14.00" fill="#000000">golang.org/x/sys</text>
</g>
<!-- github.com/sirupsen/logrus&#45;&gt;golang.org/x/sys -->
<g id="edge11" class="edge">
<title>github.com/sirupsen/logrus&#45;&gt;golang.org/x/sys</title>
<path fill="none" stroke="#000000" d="M353.9139,-270.3071C452.5024,-256.6949 608.7991,-235.1148 697.595,-222.8546"/>
<polygon fill="#000000" stroke="#000000" points="698.1263,-226.3146 707.5536,-221.4796 697.1688,-219.3804 698.1263,-226.3146"/>
</g>
<!-- github.com/kr/pty -->
<g id="node5" class="node">
<title>github.com/kr/pty</title>
<text text-anchor="middle" x="931.996" y="-555.4941" font-family="Helvetica,sans-Serif" font-size="14.00" fill="#000000">github.com/kr/pty</text>
</g>
<!-- github.com/kr/text&#45;&gt;github.com/kr/pty -->
<g id="edge4" class="edge">
<title>github.com/kr/text&#45;&gt;github.com/kr/pty</title>
<path fill="none" stroke="#000000" d="M808.9476,-508.2258C830.4127,-517.1169 856.4282,-527.8929 878.9991,-537.2421"/>
<polygon fill="#000000" stroke="#000000" points="877.8599,-540.5585 888.4381,-541.1519 880.5387,-534.0914 877.8599,-540.5585"/>
</g>
</g>
</svg>
